<?xml version="1.0" encoding="iso-8859-1"?>
<!-- Uploaded to: SVG Repo, www.svgrepo.com, Generator: SVG Repo Mixer Tools -->
<svg height="800px" width="800px" version="1.1" id="Layer_1" xmlns="http://www.w3.org/2000/svg" xmlns:xlink="http://www.w3.org/1999/xlink" 
	 viewBox="0 0 492 492" xml:space="preserve">
<path style="fill:#0EE0B8;" d="M402,0H90C76.4,0,66,10.4,66,24v320l154.4,148H402c13.6,0,24-10.4,24-24V24C426,10.4,415.6,0,402,0z"
	/>
<path style="fill:#FF7900;" d="M402,0H90C76.4,0,66,10.4,66,24v320l154.4,148H402c13.6,0,24-10.4,24-24V24C426,10.4,415.6,0,402,0z"
	/>
<path style="fill:#FF6700;" d="M426,383.2V24c0-13.6-10.4-24-24-24H90C76.4,0,66,10.4,66,24"/>
<path style="fill:#FF4E00;" d="M426,383.2V24c0-13.6-10.4-24-24-24H205.2"/>
<path style="fill:#FF6700;" d="M200.4,348.8v120c0,1.6,0,3.2,0.8,4.8l18.4,17.6c1.6,0,2.4,0.8,4,0.8h125.6L200.4,348.8L200.4,348.8z
	"/>
<path style="fill:#FF4E00;" d="M200.4,348.8v120c0,1.6,0,3.2,0.8,4.8l18.4,17.6c1.6,0,2.4,0.8,4,0.8h64l-72-120L200.4,348.8z"/>
<path style="fill:#FFFFFF;" d="M220.4,491.2L220.4,491.2v-124c0-13.6-10.4-24-24-24H66L220.4,491.2z"/>
<polyline style="fill:#FFEDCF;" points="66,344 220.4,491.2 220.4,491.2 220.4,368 "/>
<path style="fill:#FCC054;" d="M77.2,344L77.2,344V24c0-13.6,10.4-24,24-24H90.8c-13.6,0-24,10.4-24,24v320l0,0H77.2z"/>
<g>
	<path style="fill:#FFFFFF;" d="M169.2,136c8-1.6,20.8-3.2,34.4-3.2c18.4,0,30.4,3.2,40,10.4c7.2,5.6,12,14.4,12,25.6
		c0,13.6-9.6,26.4-24.8,32v0.8c13.6,3.2,29.6,15.2,29.6,36c0,12.8-4.8,21.6-12,28.8C238,276,222,280,198,280
		c-12.8,0-23.2-0.8-28.8-1.6V136z M187.6,196h16.8c20,0,31.2-10.4,31.2-24c0-16.8-12.8-24-32-24c-8.8,0-13.6,0.8-16.8,1.6V196H187.6
		z M187.6,265.6c4,0.8,8.8,0.8,16,0.8c19.2,0,37.6-7.2,37.6-28c0-20-16.8-28-37.6-28h-15.2v55.2H187.6z"/>
	<path style="fill:#FFFFFF;" d="M198,284.8c-14.4,0-24.8-0.8-29.6-1.6c-1.6,0-3.2-1.6-3.2-4V136c0-1.6,1.6-3.2,3.2-4
		c8.8-1.6,22.4-3.2,35.2-3.2c19.2,0,32.8,3.2,42.4,11.2c8.8,6.4,13.6,16.8,13.6,28.8c0,12.8-7.2,24.8-18.4,31.2
		c12.8,5.6,24,17.6,24,36.8c0,12.8-4.8,23.2-13.6,32C239.6,280,222.8,284.8,198,284.8z M173.2,275.2c5.6,0.8,13.6,1.6,24.8,1.6
		c22.4,0,38.4-4,47.2-12.8c7.2-7.2,11.2-16,11.2-26.4c0-19.2-13.6-29.6-27.2-32.8c-1.6-0.8-3.2-2.4-3.2-4s0.8-4,2.4-4
		c13.6-4.8,21.6-16,21.6-28c0-9.6-4-17.6-10.4-22.4c-8.8-7.2-20-9.6-37.6-9.6c-10.4,0-21.6,0.8-30.4,2.4v136H173.2z M203.6,270.4
		c-8,0-12.8,0-16.8-0.8c-1.6,0-3.2-1.6-3.2-4v-55.2c0-2.4,1.6-4,4-4h15.2c25.6,0,41.6,12,41.6,32S229.2,270.4,203.6,270.4z
		 M191.6,261.6c3.2,0,6.4,0,12,0c12.8,0,33.6-3.2,33.6-24c0-21.6-23.2-24-33.6-24h-11.2v48H191.6z M204.4,200h-16.8
		c-2.4,0-4-1.6-4-4v-46.4c0-1.6,1.6-3.2,3.2-4c4-0.8,10.4-1.6,17.6-1.6c31.2,0,36,17.6,36,28C239.6,188,226,200,204.4,200z
		 M191.6,192h12.8c16.8,0,27.2-8,27.2-20c0-4.8,0-20-28-20c-4.8,0-9.6,0-12.8,0.8V192H191.6z"/>
	<path style="fill:#FFFFFF;" d="M285.2,208c0-12,0-23.2-0.8-32.8h16.8L302,196l0,0c4.8-13.6,16-23.2,28.8-23.2c2.4,0,4,0,5.6,0.8
		v17.6c-1.6-0.8-4-0.8-6.4-0.8c-13.6,0-23.2,10.4-25.6,24c-0.8,2.4-0.8,5.6-0.8,8.8v55.2h-18.4V208z"/>
	<path style="fill:#FFFFFF;" d="M303.6,283.2h-18.4c-2.4,0-4-1.6-4-4v-72c0-13.6,0-23.2-0.8-32c0-0.8,0-2.4,0.8-3.2s1.6-1.6,3.2-1.6
		h16.8c2.4,0,4,1.6,4,4v7.2c8-10.4,20.8-15.2,32.8-12.8c1.6,0.8,3.2,2.4,3.2,4v17.6c0,1.6-0.8,2.4-1.6,3.2c-0.8,0.8-2.4,0.8-3.2,0.8
		c-1.6,0-3.2-0.8-5.6-0.8c-11.2,0-19.2,8-21.6,20.8c0,2.4-0.8,4.8-0.8,8v55.2C307.6,281.6,306,283.2,303.6,283.2z M289.2,275.2h10.4
		V224c0-3.2,0.8-6.4,0.8-9.6c3.2-16.8,14.4-28,29.6-28c0.8,0,1.6,0,2.4,0v-9.6c-0.8,0-0.8,0-1.6,0c-11.2,0-20.8,8-24.8,20
		c-0.8,1.6-2.4,2.4-4,2.4h-0.8c-2.4,0-4-1.6-4-4l-0.8-16.8h-8.8c0.8,8,0.8,16.8,0.8,28.8v68H289.2z"/>
</g>
<path style="opacity:0.1;enable-background:new    ;" d="M258,284.8c8.8-8.8,13.6-19.2,13.6-32c0-19.2-12-31.2-24-36.8
	c12-7.2,18.4-18.4,18.4-31.2c0-12-4.8-22.4-13.6-28.8c-9.6-8-23.2-11.2-42.4-11.2c-12.8,0-25.6,0.8-35.2,3.2c-1.6,0-3.2,2.4-3.2,4
	v141.6c0,1.6,1.6,4,3.2,4c4.8,0.8,15.2,1.6,29.6,1.6C229.2,299.2,246.8,294.4,258,284.8z M210,276.8c-4.8,0-8.8,0-12,0v-48h11.2
	c10.4,0,33.6,2.4,33.6,24C243.6,273.6,222.8,276.8,210,276.8z M211.6,206.4h-12.8v-39.2c3.2-0.8,7.2-0.8,12.8-0.8
	c28,0,28,15.2,28,20C238.8,198.4,228.4,206.4,211.6,206.4z"/>
<path style="opacity:0.1;enable-background:new    ;" d="M344.4,184c-12-3.2-24.8,2.4-32.8,12.8v-7.2c0-2.4-1.6-4-4-4h-16.8
	c-0.8,0-2.4,0.8-3.2,1.6s-0.8,1.6-0.8,3.2c0.8,8.8,0.8,18.4,0.8,32v72c0,2.4,1.6,4,4,4H310c2.4,0,4-1.6,4-4v-55.2
	c0-3.2,0.8-5.6,0.8-8c2.4-12.8,10.4-20.8,21.6-20.8c2.4,0,4,0,5.6,0.8c0.8,0,2.4,0,3.2-0.8c0.8-0.8,1.6-1.6,1.6-3.2v-17.6
	C346.8,186.4,346,184.8,344.4,184z"/>
</svg>