<!DOCTYPE svg PUBLIC "-//W3C//DTD SVG 1.1//EN" "http://www.w3.org/Graphics/SVG/1.1/DTD/svg11.dtd">
<!-- Uploaded to: SVG Repo, www.svgrepo.com, Transformed by: SVG Repo Mixer Tools -->
<svg height="800px" width="800px" version="1.1" id="Layer_1" xmlns="http://www.w3.org/2000/svg" xmlns:xlink="http://www.w3.org/1999/xlink" viewBox="0 0 512 512" xml:space="preserve" fill="#000000">
<g id="SVGRepo_bgCarrier" stroke-width="0"/>
<g id="SVGRepo_tracerCarrier" stroke-linecap="round" stroke-linejoin="round"/>
<g id="SVGRepo_iconCarrier"> <path style="fill:#FCA61F;" d="M512,256.006C512,397.402,397.394,512.004,256.004,512C114.606,512.004,0,397.402,0,256.006 C-0.007,114.61,114.606,0,256.004,0C397.394,0,512,114.614,512,256.006z"/> <path style="fill:#FCA61F;" d="M512,256.005c0-21.556-2.695-42.478-7.712-62.478c-0.109-0.105-91.497-91.532-92.071-92.073 c-6.811-7.253-16.413-11.855-27.124-11.855H126.908c-20.571,0-37.308,16.737-37.308,37.307v258.186 c0,10.709,4.599,20.309,11.852,27.12c0.541,0.577,91.179,91.214,91.756,91.756c0.105,0.112,0.218,0.213,0.323,0.323 c19.998,5.015,40.918,7.71,62.473,7.709C397.394,512.004,512,397.401,512,256.005z"/> <g> <path style="fill:#F4F6F9;" d="M385.092,89.6H126.908c-20.571,0-37.308,16.737-37.308,37.308v258.186 c0,20.57,16.737,37.307,37.308,37.307h258.186c20.57,0,37.307-16.737,37.307-37.308V126.908 C422.4,106.337,405.663,89.6,385.092,89.6z M408.533,385.092c0,12.926-10.515,23.441-23.441,23.441H126.908 c-12.926,0-23.441-10.515-23.441-23.441V126.908c0-12.926,10.515-23.441,23.441-23.441h258.186c12.925,0,23.44,10.515,23.44,23.441 V385.092z"/> <path style="fill:#F4F6F9;" d="M234.799,254.359v-0.644c14.553-5.322,23.412-17.455,23.412-31.501 c0-11.067-4.217-19.583-11.181-25.334c-8.434-7.234-19.827-10.213-36.708-10.213c-11.6,0-22.781,1.275-30.589,2.979v141.131 c5.694,0.638,14.347,1.49,26.372,1.49c21.303,0,36.283-4.047,45.568-13.415c7.177-6.812,11.606-16.388,11.606-28.522 C263.28,269.68,249.351,257.977,234.799,254.359z M197.452,201.779c2.748-0.638,6.964-1.275,14.141-1.275 c18.138,0,28.687,7.872,28.687,23.414c0,14.26-11.394,24.689-28.899,24.689h-13.929V201.779z M210.749,318.213 c-5.7,0-10.13-0.215-13.296-0.852v-55.345h12.87c18.564,0,34.387,8.516,34.387,28.098 C244.709,310.341,229.099,318.213,210.749,318.213z"/> <path style="fill:#F4F6F9;" d="M301.465,247.333h-0.633l-0.845-19.159h-15.611c0.426,8.939,0.845,19.374,0.845,30.441v72.585 h17.726v-55.559c0-3.187,0.206-6.382,0.632-8.939c2.321-13.408,11.181-23.199,23.412-23.199c2.115,0,3.798,0,5.275,0.422v-17.455 c-1.476-0.208-2.74-0.422-4.636-0.422C316.237,226.046,305.689,234.562,301.465,247.333z"/> </g> </g>
</svg>